<?xml version="1.0" standalone="no"?><!DOCTYPE svg PUBLIC "-//W3C//DTD SVG 1.1//EN" "http://www.w3.org/Graphics/SVG/1.1/DTD/svg11.dtd"><svg t="1605929178694" class="icon" viewBox="0 0 1024 1024" version="1.1" xmlns="http://www.w3.org/2000/svg" p-id="37970" xmlns:xlink="http://www.w3.org/1999/xlink" width="200" height="200"><defs><style type="text/css"></style></defs><path d="M620.345806 478.307097c71.349677-38.317419 119.576774-113.630968 119.576775-200.175484 0-125.522581-101.739355-227.261935-227.261936-227.261936S285.39871 152.609032 285.39871 278.131613c0 84.562581 46.245161 158.554839 114.952258 197.532903-202.157419 50.869677-350.141935 241.135484-350.802581 455.845161v21.140646h21.140645c100.418065 1.32129 273.507097 1.32129 443.292903 1.32129 169.785806 0 336.268387-0.660645 424.794839-1.32129h21.140645V931.509677c0-211.406452-143.36-399.029677-339.571613-453.20258zM327.019355 278.131613c0-101.739355 83.24129-184.980645 184.980645-184.980645s184.980645 83.24129 184.980645 184.980645c0 99.757419-79.938065 181.677419-179.034839 184.980645-4.624516 0-8.588387-0.660645-13.212903-0.660645h-4.624516c-96.454194-5.945806-173.089032-86.544516-173.089032-184.32z m-233.868387 632.237419c11.230968-217.352258 188.944516-401.672258 406.296774-405.636129 3.963871 0 8.588387 0.660645 12.552258 0.660645h5.945806c214.049032 7.267097 387.79871 190.265806 399.029678 404.975484-91.829677 0.660645-246.420645 1.32129-402.993549 1.321291-157.894194 0-318.430968-0.660645-420.830967-1.321291z" p-id="37971" fill="#23d599"></path></svg>