<?xml version="1.0" standalone="no"?><!DOCTYPE svg PUBLIC "-//W3C//DTD SVG 1.1//EN" "http://www.w3.org/Graphics/SVG/1.1/DTD/svg11.dtd"><svg t="1605714602968" class="icon" viewBox="0 0 1024 1024" version="1.1" xmlns="http://www.w3.org/2000/svg" p-id="24551" xmlns:xlink="http://www.w3.org/1999/xlink" width="200" height="200"><defs><style type="text/css"></style></defs><path d="M998.3848 1023.968001c-13.983563 0-25.311209-11.19965-25.5992-25.087216-0.063998-1.247961-1.663948-22.111309-21.631324-62.014062-20.639355-41.246711-84.445361-92.573107-175.834505-107.804631-164.026874-27.327146-189.850067-136.731727-190.842036-141.371582-0.447986-1.983938-0.63998-4.031874-0.607981-6.07981 0.287991-11.615637-0.191994-73.085716-0.191994-73.085716-0.063998-8.735727 4.287866-16.863473 11.583638-21.663323 18.655417-12.223618 70.589794-51.454392 86.845286-85.853317 4.255867-8.927721 13.247586-14.655542 23.135277-14.655542 28.47911 0 48.670479-54.334302 48.670479-71.67776 0-44.062623-9.119715-47.35852-23.03928-47.35852-14.143558 0-25.5992-11.455642-25.5992-25.5992L705.27396 195.83388c0-58.334177-61.43808-144.63548-193.27396-144.63548S318.72604 137.499703 318.72604 195.83388l0 145.91544c0 14.143558-11.455642 25.5992-25.5992 25.5992-13.919565 0-23.03928 3.295897-23.03928 47.35852 0 17.311459 19.647386 71.67776 47.35852 71.67776 9.695697 0 18.55942 5.471829 22.911284 14.175557 17.439455 34.910909 69.853817 74.941658 88.573232 87.421268 7.135777 4.735852 11.391644 12.735602 11.391644 21.311334l0 72.95772c0 42.686666-40.382738 121.660198-191.642011 146.843411-87.133277 14.527546-146.363426 50.910409-176.026499 108.124621-6.239805 12.031624-10.911659 24.671229-14.335552 35.582888L852.46936 972.8016c14.143558 0 25.5992 11.455642 25.5992 25.5992 0 14.143558-11.455642 25.5992-25.5992 25.5992L25.647199 1024c-7.487766 0-14.655542-3.295897-19.487391-9.023718-4.863848-5.727821-6.975782-13.279585-5.75982-20.703353 0.287991-1.727946 7.135777-42.590669 26.847161-80.63748 36.958845-71.293772 110.620543-117.980313 213.081341-135.067779 122.108184-20.351364 148.859348-76.445611 148.859348-96.348989l0-59.710134c-20.575357-15.03953-63.710009-49.150464-87.485266-86.589294C244.48836 523.567639 218.88916 445.810068 218.88916 414.70704c0-52.894347 16.351489-84.701353 48.63848-94.909034L267.52764 195.83388C267.52764 101.660823 360.996719 0 512 0s244.47236 101.660823 244.47236 195.83388l0 123.964126c32.286991 10.23968 48.63848 42.046686 48.63848 94.909034 0 31.103028-25.91919 108.7966-83.805381 121.180213-23.071279 37.630824-65.405956 70.781788-86.333302 85.789319 0.095997 16.991469 0.255992 45.278585 0.159995 57.342208 4.15987 13.43958 30.559045 79.869504 148.603356 99.548889 109.660573 18.271429 186.106184 81.181463 213.241336 135.387769C1022.672041 965.377832 1023.984 993.28096 1023.984 998.368801 1023.984 1012.512359 1012.528358 1023.968001 998.3848 1023.968001z" p-id="24552" fill="#8a8a8a"></path><path d="M897.971938 671.979001l-127.996 0c-17.695447 0-31.999-14.303553-31.999-31.999s14.303553-31.999 31.999-31.999l127.996 0c17.695447 0 31.999 14.303553 31.999 31.999S915.667385 671.979001 897.971938 671.979001z" p-id="24553" fill="#8a8a8a"></path><path d="M833.973938 735.977001c-17.695447 0-31.999-14.303553-31.999-31.999l0-127.996c0-17.695447 14.303553-31.999 31.999-31.999s31.999 14.303553 31.999 31.999l0 127.996C865.972938 721.673448 851.669385 735.977001 833.973938 735.977001z" p-id="24554" fill="#8a8a8a"></path></svg>