<?xml version="1.0" standalone="no"?><!DOCTYPE svg PUBLIC "-//W3C//DTD SVG 1.1//EN" "http://www.w3.org/Graphics/SVG/1.1/DTD/svg11.dtd"><svg t="1605714526455" class="icon" viewBox="0 0 1024 1024" version="1.1" xmlns="http://www.w3.org/2000/svg" p-id="14535" xmlns:xlink="http://www.w3.org/1999/xlink" width="200" height="200"><defs><style type="text/css"></style></defs><path d="M834.4 288.1H743C701.2 180.6 613.5 103 512 103s-191.1 77.6-232.9 185.1h-89.6c-23.9 0-41.8 17.9-41.8 41.8v549.3c0 23.9 17.9 41.8 41.8 41.8h644.8c23.9 0 41.8-11.9 41.8-35.8V335.9c0.1-23.9-17.8-47.8-41.7-47.8z m-465.7-65.7c41.8-47.8 89.6-77.6 143.3-77.6 53.7 0 101.5 23.9 143.3 71.7 17.9 23.9 28 47.8 39.9 71.6H326.9c11.9-23.9 23.9-47.8 41.8-65.7zM195.2 872.1V335.9h72c0 6-6 17.9-6 23.9-11.9 6-23.9 23.9-23.9 41.8 0 29.9 23.9 47.8 47.8 47.8 29.9 0 47.8-23.9 47.8-47.8 0-17.9-11.9-35.8-29.9-41.8 0-6 1.7-15.7 6-23.9l399.9-0.4c1.5 6 5.8 18.3 5.8 24.3-17.9 6-23.9 23.9-23.9 41.8 0 29.9 23.9 47.8 47.8 47.8 29.9 0 49.1-23.9 47.8-47.8-1.3-23.1-8.8-38.1-29.9-41.8 0-6-3.4-16-4.3-23.9h74.1v536.3H195.2z m0 0" p-id="14536" fill="#8a8a8a"></path></svg>