<?xml version="1.0" standalone="no"?><!DOCTYPE svg PUBLIC "-//W3C//DTD SVG 1.1//EN" "http://www.w3.org/Graphics/SVG/1.1/DTD/svg11.dtd"><svg t="1605929315172" class="icon" viewBox="0 0 1024 1024" version="1.1" xmlns="http://www.w3.org/2000/svg" p-id="4761" xmlns:xlink="http://www.w3.org/1999/xlink" width="200" height="200"><defs><style type="text/css"></style></defs><path d="M640 416H384c-17.664 0-32-14.336-32-32s14.336-32 32-32h256c17.696 0 32 14.336 32 32s-14.304 32-32 32zM579.264 544H384c-17.664 0-32-14.336-32-32s14.336-32 32-32h195.264c17.696 0 32 14.336 32 32s-14.336 32-32 32z" p-id="4762" fill="#03a9f4"></path><path d="M962.24 448c0-211.744-200.96-384-448-384s-448 172.256-448 384c0 116.512 63.04 226.048 172.928 300.672 14.624 9.984 34.528 6.144 44.448-8.512 9.92-14.624 6.112-34.528-8.512-44.448C183.04 633.216 130.24 542.944 130.24 448c0-176.448 172.256-320 384-320s384 143.552 384 320-172.256 320-384 320c-1.984 0-3.68 0.768-5.568 1.12-15.136-2.72-30.464 5.216-35.776 20.192-6.144 17.376-46.368 46.656-94.144 73.792 17.44-58.208 9.088-70.688 3.488-78.976a36.034 36.034 0 0 0-29.92-15.936c-17.664 0-32 14.304-32 32 0 5.824 1.536 11.264 4.256 15.968-3.232 18.208-17.216 60.832-33.056 99.84-4.928 12.096-1.984 25.984 7.392 35.072 6.08 5.888 14.112 8.992 22.272 8.992 4.384 0 8.8-0.896 12.992-2.752 36.48-16.256 147.648-69.12 187.616-125.632C765.344 828.16 962.24 657.568 962.24 448z" p-id="4763" fill="#03a9f4"></path></svg>