<?xml version="1.0" standalone="no"?><!DOCTYPE svg PUBLIC "-//W3C//DTD SVG 1.1//EN" "http://www.w3.org/Graphics/SVG/1.1/DTD/svg11.dtd"><svg t="1605928592449" class="icon" viewBox="0 0 1024 1024" version="1.1" xmlns="http://www.w3.org/2000/svg" p-id="6801" xmlns:xlink="http://www.w3.org/1999/xlink" width="200" height="200"><defs><style type="text/css"></style></defs><path d="M512 990.72c264.192 0 478.72-215.04 478.72-478.72s-215.04-478.72-478.72-478.72-478.72 215.04-478.72 478.72 214.528 478.72 478.72 478.72z m-269.312-588.8h434.176l-35.84-26.624 40.96-55.296 119.808 88.576c11.776 8.704 16.896 24.064 12.288 38.4-4.608 14.336-17.92 23.552-32.768 23.552h-538.112v-68.608z m-32.256 175.104c4.608-13.824 17.92-23.552 32.768-23.552h538.112v68.608h-434.176l35.84 26.624-40.96 55.296-119.808-88.576c-11.264-8.704-16.384-24.064-11.776-38.4z" p-id="6802" fill="#f1413d"></path></svg>