<?xml version="1.0" standalone="no"?><!DOCTYPE svg PUBLIC "-//W3C//DTD SVG 1.1//EN" "http://www.w3.org/Graphics/SVG/1.1/DTD/svg11.dtd"><svg t="1605928312480" class="icon" viewBox="0 0 1024 1024" version="1.1" xmlns="http://www.w3.org/2000/svg" p-id="4193" xmlns:xlink="http://www.w3.org/1999/xlink" width="200" height="200"><defs><style type="text/css"></style></defs><path d="M344.112804 426.89981 288.152281 426.89981 131.457496 534.342868 489.614665 534.342868Z" p-id="4194" fill="#fc9302"></path><path d="M820.098565 256.740362c46.364981 0 83.920318-38.058804 83.920318-85.015256 0-46.954405-37.555337-85.014232-83.920318-85.014232-46.346561 0-83.901899 38.058804-83.901899 85.014232C736.196667 218.681558 773.752004 256.740362 820.098565 256.740362z" p-id="4195" fill="#fc9302"></path><path d="M959.69595 568.662511l-27.981285-283.537681L735.847719 285.124829l-55.961546 198.468191-83.944877 85.069491-55.961546 28.352745-5.595438-40.288588L64.303027 556.726667l0 96.994078 27.982308 0 83.942831 141.774981 27.979238 0c3.607154 69.229734 27.478841 142.658094 139.906423 141.78419 87.396489 0 102.219079-63.086827 111.924115-85.078701l55.961546 40.311101 22.38687 0 5.595438-238.791571 27.982308 0 55.961546-56.70549 111.924115-56.703443 39.98262-103.170754 14.97404 134.877897L679.886173 710.436468 713.463919 937.279916l44.7676 0 5.598508-198.490703 83.941807-85.068468 0 113.421212L870.155634 937.279916l67.154469 0-22.3838-201.462385L959.69595 568.662511zM330.123184 880.576473c-38.650275 0-69.953212-31.742958-69.953212-70.91512 0-39.131229 31.30396-70.872141 69.953212-70.872141 38.625716 0 69.953212 31.740912 69.953212 70.872141C400.07742 848.833515 368.749924 880.576473 330.123184 880.576473zM511.998465 852.201216l-55.961546-56.70549 0-28.353768c-0.436952-2.468215 28.504194 2.384303 27.982308 0l27.979238 0L511.998465 852.201216z" p-id="4196" fill="#fc9302"></path></svg>