<?xml version="1.0" standalone="no"?><!DOCTYPE svg PUBLIC "-//W3C//DTD SVG 1.1//EN" "http://www.w3.org/Graphics/SVG/1.1/DTD/svg11.dtd"><svg t="1605929410387" class="icon" viewBox="0 0 1024 1024" version="1.1" xmlns="http://www.w3.org/2000/svg" p-id="5601" xmlns:xlink="http://www.w3.org/1999/xlink" width="200" height="200"><defs><style type="text/css"></style></defs><path d="M507.611429 36.571429a471.04 471.04 0 1 1 0 942.08A471.04 471.04 0 0 1 507.611429 36.571429z m0 73.142857a397.897143 397.897143 0 1 0 0 795.794285 397.897143 397.897143 0 0 0 0-795.794285z m51.2 587.337143v92.525714h-102.4V697.051429h102.4z m-58.368-494.08c110.226286 0 203.190857 66.56 203.190857 184.905142 0 55.881143-24.722286 96.402286-75.702857 145.993143l-55.808 52.516572a86.235429 86.235429 0 0 0-9.947429 10.971428l-3.730286 6.363429v37.741714h-102.4v-39.497143c0-15.36 3.876571-29.988571 10.825143-43.885714 8.265143-16.603429 20.187429-31.451429 37.083429-48.347429l12.873143-12.434285 28.233142-25.892572c40.228571-37.302857 56.173714-60.708571 56.173715-83.529143 0-53.028571-41.179429-82.505143-100.790857-82.505142-41.764571 0-76.141714 27.062857-85.284572 68.608l-1.536 9.142857-101.668571-12.653715a188.196571 188.196571 0 0 1 188.489143-167.497142z" p-id="5602" fill="#10da96"></path></svg>