<?xml version="1.0" standalone="no"?><!DOCTYPE svg PUBLIC "-//W3C//DTD SVG 1.1//EN" "http://www.w3.org/Graphics/SVG/1.1/DTD/svg11.dtd"><svg t="1605928899132" class="icon" viewBox="0 0 1152 1024" version="1.1" xmlns="http://www.w3.org/2000/svg" p-id="26187" xmlns:xlink="http://www.w3.org/1999/xlink" width="225" height="200"><defs><style type="text/css"></style></defs><path d="M542.119979 288.599989l108.539996 28.599999a17.179999 17.179999 0 0 1 13.259999 16.199999c0 9.2-8.18 16.799999-18.239999 16.799999h-71.199997a59.999998 59.999998 0 0 1-22.38-4.4c-10.48-4.4-22.559999-3.4-30.599998 4l-37.999999 34.999999a23.359999 23.359999 0 0 0-4.5 5.32 22.839999 22.839999 0 0 0 7.76 31.479999 167.539993 167.539993 0 0 0 69.019997 22.999999V479.999981c0 17.599999 15.659999 31.999999 34.739999 31.999999h34.739999c19.099999 0 34.759999-14.399999 34.759998-31.999999v-35.199998c65.859997-7.2 115.679995-61.999998 106.999996-125.999995-6.3-45.999998-44.919998-82.599997-93.119996-95.399997l-108.539996-28.599999a17.179999 17.179999 0 0 1-13.26-16.199999c0-9.2 8.18-16.799999 18.24-16.799999h71.199997A59.999998 59.999998 0 0 1 663.999974 166.199994c10.46 4.4 22.559999 3.4 30.599999-4l37.999998-34.999999a22.619999 22.619999 0 0 0 4.34-5.2 22.859999 22.859999 0 0 0-7.679999-31.559999 167.639993 167.639993 0 0 0-69.039998-22.999999V31.999999c0-17.599999-15.639999-31.999999-34.739998-31.999999h-34.739999C571.639978 0 555.999978 14.399999 555.999978 31.999999v35.199998c-65.779997 7.2-115.699995 61.999998-107.019996 125.999995 6.28 45.999998 45.019998 82.599997 93.139997 95.399997z m588.419977 367.599985c-23.599999-21.399999-60.399998-19.999999-85.199997 0l-184.799993 147.799995a127.279995 127.279995 0 0 1-79.999996 27.999999H543.999979a31.999999 31.999999 0 0 1 0-63.999998h156.579994c31.799999 0 61.419998-21.799999 66.499997-53.199998a62.399998 62.399998 0 0 0 0.92-10.919999A63.999998 63.999998 0 0 0 703.999973 639.999975H383.999985a235.319991 235.319991 0 0 0-148.199994 52.579998L142.799994 767.99997H31.999999a31.999999 31.999999 0 0 0-31.999999 31.999999v191.999992a31.999999 31.999999 0 0 0 31.999999 31.999999h713.539972a127.999995 127.999995 0 0 0 79.999997-27.999999L1127.999956 753.999971a63.999998 63.999998 0 0 0 2.56-97.799997z" p-id="26188" fill="#7e4de2"></path></svg>