<?xml version="1.0" standalone="no"?><!DOCTYPE svg PUBLIC "-//W3C//DTD SVG 1.1//EN" "http://www.w3.org/Graphics/SVG/1.1/DTD/svg11.dtd"><svg t="1605948853931" class="icon" viewBox="0 0 1024 1024" version="1.1" xmlns="http://www.w3.org/2000/svg" p-id="16290" xmlns:xlink="http://www.w3.org/1999/xlink" width="200" height="200"><defs><style type="text/css"></style></defs><path d="M512 0C230.4 0 0 230.4 0 512s230.4 512 512 512 512-230.4 512-512-230.4-512-512-512zM339.2 768c0 12.8-12.8 25.6-25.6 25.6H256c-12.8 0-25.6-12.8-25.6-25.6V371.2c0-12.8 12.8-25.6 25.6-25.6h57.6c12.8 0 25.6 12.8 25.6 25.6V768z m499.2-358.4l-83.2 339.2c-6.4 25.6-32 44.8-57.6 44.8H422.4c-12.8 0-25.6-12.8-25.6-25.6V396.8L448 192c0-12.8 12.8-19.2 25.6-19.2H512c32 0 57.6 25.6 57.6 57.6v115.2h211.2c38.4-6.4 64 32 57.6 64z" p-id="16291" fill="#5ac268"></path></svg>