<?xml version="1.0" standalone="no"?><!DOCTYPE svg PUBLIC "-//W3C//DTD SVG 1.1//EN" "http://www.w3.org/Graphics/SVG/1.1/DTD/svg11.dtd"><svg t="1605714633039" class="icon" viewBox="0 0 1024 1024" version="1.1" xmlns="http://www.w3.org/2000/svg" p-id="25336" xmlns:xlink="http://www.w3.org/1999/xlink" width="200" height="200"><defs><style type="text/css"></style></defs><path d="M865.382 958.85h-259.41c-9.89 0-17.907-8.017-17.907-17.908V697.048h-151.45v243.894c0 9.89-8.017 17.908-17.907 17.908H157.253c-9.89 0-17.908-8.017-17.908-17.908V473.455H81.89a17.908 17.908 0 0 1-11.755-31.418l429.428-373.62c6.757-5.879 16.817-5.861 23.554 0.04l101.277 88.703V81.928c0-9.89 8.018-17.908 17.908-17.908h148.72c9.89 0 17.908 8.018 17.908 17.908V317.06L952.72 441.555c4.104 3.281 6.731 8.33 6.731 13.992 0 9.89-8.018 17.908-17.907 17.908H883.29v467.487c0 9.89-8.018 17.908-17.908 17.908zM623.88 923.034h223.593V455.547c0-9.89 8.018-17.908 17.908-17.908h28.098L779.3 338.782a17.909 17.909 0 0 1-6.187-13.538V99.836H660.21v96.815a17.91 17.91 0 0 1-10.511 16.31 17.915 17.915 0 0 1-19.196-2.838L511.278 105.699 129.755 437.64h27.499c9.89 0 17.908 8.018 17.908 17.908v467.487H400.8V679.14c0-9.89 8.017-17.908 17.908-17.908h187.265c9.89 0 17.908 8.017 17.908 17.908v243.894z" p-id="25337" fill="#8a8a8a"></path></svg>